<?xml version="1.0" ?><svg id="Layer_1" style="enable-background:new 0 0 512 512;" version="1.1" viewBox="0 0 512 512" xml:space="preserve" xmlns="http://www.w3.org/2000/svg" xmlns:xlink="http://www.w3.org/1999/xlink"><style type="text/css">
	.st0{fill:#ffffff;}
	.st1{fill:#ffffff;}
	.st2{fill:#ffffff;}
	.st3{fill:#ffffff;}
	.st4{fill:#ffffff;}
	.st5{fill:#ffffff;}
	.st6{fill:#ffffff;}
	.st7{fill:#ffffff;}
	.st8{fill:#ffffff;}
	.st9{fill:#ffffff;}
	.st10{fill:#ffffff;}
	.st11{fill:#ffffff;}
</style><g id="XMLID_1068_"><g id="XMLID_866_"><g id="XMLID_711_"><polygon class="st0" id="XMLID_715_" points="19.9,231.1 19.9,488.8 19.9,488.8 57.5,506 95.1,488.8 95.1,488.8 95.1,231.1         "/><polygon class="st1" id="XMLID_714_" points="57.5,231.1 19.9,231.1 19.9,489.2 19.9,489.2 57.5,505.6    "/><g id="XMLID_712_"><polyline class="st2" id="XMLID_713_" points="57.5,212.3 19.9,231.1 57.5,249.9 95.1,231.1 57.5,212.3     "/></g></g><g id="XMLID_709_"><path class="st1" d="M15.1,165.1h16.5c-3.1,3.4-5.4,7-7,10.6c-1.6,3.7-2.4,7.7-2.4,12.1v4.3h7.7v-4.3     c0-4.5,0.6-8.4,1.9-11.7c1.3-3.4,3.7-7,7.2-11v-5.9H15.1V165.1z" id="XMLID_878_"/><path class="st1" d="M54.1,158.7c-3.5,0-6.2,1.1-8.3,3.3c-2.1,2.2-3.1,5.3-3.1,9.2v8.7c0,3.9,1,7,3.1,9.2     c2.1,2.2,4.9,3.3,8.4,3.3c3.4,0,6.2-1.1,8.3-3.3c2.1-2.2,3.1-5.3,3.1-9.2v-8.7c0-3.9-1.1-7-3.2-9.2     C60.3,159.8,57.5,158.7,54.1,158.7z M57.9,180.5c0,2.1-0.3,3.6-1,4.7c-0.7,1-1.6,1.6-2.8,1.6c-1.2,0-2.2-0.5-2.9-1.6     c-0.7-1-1-2.6-1-4.7v-9.7c0-2,0.3-3.5,1-4.6c0.7-1.1,1.6-1.6,2.8-1.6c1.2,0,2.2,0.5,2.8,1.6c0.7,1.1,1,2.6,1,4.6V180.5z" id="XMLID_881_"/><path class="st1" d="M82.3,172.1c1.3-1.3,1.9-2.9,1.9-4.9v-1.7c0-2-0.6-3.6-1.9-4.9s-3.1-1.9-5.5-1.9     c-2.3,0-4.1,0.6-5.4,1.9s-1.9,2.9-1.9,4.9v1.7c0,1.9,0.6,3.6,1.9,4.8c1.3,1.3,3.1,1.9,5.4,1.9C79.3,174,81.1,173.4,82.3,172.1z      M74.5,167.2v-1.7c0-0.8,0.2-1.4,0.6-1.9c0.4-0.5,1-0.8,1.8-0.8c0.8,0,1.4,0.3,1.8,0.8c0.4,0.5,0.6,1.2,0.6,1.9v1.7     c0,0.8-0.2,1.4-0.6,1.9c-0.4,0.5-1,0.8-1.8,0.8c-0.8,0-1.4-0.3-1.8-0.8C74.7,168.6,74.5,168,74.5,167.2z" id="XMLID_884_"/><path class="st1" d="M98,179.2c-1.3-1.3-3.1-1.9-5.4-1.9c-2.3,0-4.2,0.6-5.4,1.9c-1.3,1.3-1.9,2.9-1.9,4.9v1.7     c0,2,0.6,3.6,1.9,4.9c1.3,1.3,3.1,1.9,5.5,1.9c2.3,0,4.1-0.6,5.4-1.9c1.3-1.3,1.9-2.9,1.9-4.9V184     C99.9,182.1,99.3,180.5,98,179.2z M95,185.8c0,0.8-0.2,1.5-0.5,2c-0.3,0.5-1,0.7-1.9,0.7c-0.7,0-1.3-0.3-1.8-0.8     c-0.5-0.5-0.7-1.2-0.7-1.9V184c0-0.7,0.2-1.4,0.6-1.9c0.4-0.5,1-0.8,1.8-0.8c0.8,0,1.4,0.3,1.8,0.8c0.4,0.5,0.6,1.2,0.6,1.9     V185.8z" id="XMLID_887_"/><polygon class="st1" id="XMLID_888_" points="90.5,162.1 74.4,187.9 78,189.7 94.1,163.9    "/></g></g><g id="XMLID_1065_"><g id="XMLID_721_"><polygon class="st3" id="XMLID_725_" points="148.8,182.8 148.8,488.8 148.8,488.8 186.4,506 224,488.8 224,488.8 224,182.8         "/><polygon class="st4" id="XMLID_724_" points="186,182.8 148.8,182.8 148.8,488.8 148.8,488.8 186,505.8    "/><g id="XMLID_722_"><polyline class="st5" id="XMLID_723_" points="186.4,164 148.8,182.8 186.4,201.7 224,182.8 186.4,164     "/></g></g><g id="XMLID_851_"><path class="st4" d="M162.4,114.1c1.4-0.7,2.5-1.7,3.3-3c0.8-1.2,1.2-2.6,1.2-4.2c0-2.9-1-5.2-2.9-6.7     c-1.9-1.6-4.5-2.4-7.7-2.4c-3.3,0-5.9,0.8-8,2.4c-2,1.6-3.1,3.8-3.1,6.7c0,1.6,0.4,3,1.3,4.2c0.8,1.2,2,2.2,3.5,3     c-1.8,0.8-3.3,1.8-4.3,3.2c-1.1,1.4-1.6,2.9-1.6,4.7c0,3.1,1.2,5.5,3.5,7.2c2.3,1.7,5.2,2.6,8.8,2.6c3.4,0,6.2-0.9,8.4-2.6     c2.2-1.7,3.3-4.1,3.3-7.2c0-1.8-0.5-3.3-1.5-4.7C165.6,115.9,164.2,114.8,162.4,114.1z M153.9,104.6c0.6-0.6,1.4-0.9,2.5-0.9     c0.9,0,1.6,0.3,2.2,1c0.5,0.6,0.8,1.5,0.8,2.7c0,1.2-0.3,2.1-0.8,2.8c-0.5,0.7-1.2,1.1-2.1,1.1c-1,0-1.9-0.4-2.5-1.1     c-0.6-0.7-0.9-1.6-0.9-2.8C153,106.1,153.3,105.2,153.9,104.6z M159.3,124.6c-0.8,0.8-1.8,1.2-2.9,1.2c-1.3,0-2.4-0.4-3.3-1.2     c-0.9-0.8-1.3-1.8-1.3-3.1c0-1.3,0.4-2.4,1.3-3.2c0.9-0.8,1.9-1.2,3.2-1.2c1.2,0,2.2,0.4,3,1.2c0.8,0.8,1.2,1.9,1.2,3.2     C160.5,122.8,160.1,123.9,159.3,124.6z" id="XMLID_862_"/><path class="st4" d="M182.8,97.8c-3.5,0-6.2,1.1-8.3,3.3c-2.1,2.2-3.1,5.3-3.1,9.2v8.7c0,3.9,1,7,3.1,9.2     c2.1,2.2,4.9,3.3,8.4,3.3c3.4,0,6.2-1.1,8.3-3.3c2.1-2.2,3.1-5.3,3.1-9.2v-8.7c0-3.9-1.1-7-3.2-9.2     C189,98.9,186.2,97.8,182.8,97.8z M186.6,119.6c0,2.1-0.3,3.6-1,4.7c-0.7,1-1.6,1.6-2.8,1.6c-1.2,0-2.2-0.5-2.9-1.6     c-0.7-1-1-2.6-1-4.7v-9.7c0-2,0.3-3.5,1-4.6c0.7-1.1,1.6-1.6,2.8-1.6c1.2,0,2.2,0.5,2.8,1.6c0.7,1.1,1,2.6,1,4.6V119.6z" id="XMLID_859_"/><path class="st4" d="M211,111.2c1.3-1.3,1.9-2.9,1.9-4.9v-1.7c0-2-0.6-3.6-1.9-4.9c-1.3-1.3-3.1-1.9-5.5-1.9     c-2.3,0-4.1,0.6-5.4,1.9c-1.3,1.3-1.9,2.9-1.9,4.9v1.7c0,1.9,0.6,3.6,1.9,4.8c1.3,1.3,3.1,1.9,5.4,1.9     C208,113.1,209.8,112.4,211,111.2z M203.2,106.3v-1.7c0-0.8,0.2-1.4,0.6-1.9c0.4-0.5,1-0.8,1.8-0.8c0.8,0,1.4,0.3,1.8,0.8     c0.4,0.5,0.6,1.2,0.6,1.9v1.7c0,0.8-0.2,1.4-0.6,1.9c-0.4,0.5-1,0.8-1.8,0.8c-0.8,0-1.4-0.3-1.8-0.8     C203.4,107.7,203.2,107.1,203.2,106.3z" id="XMLID_856_"/><polygon class="st4" id="XMLID_855_" points="219.2,101.2 203.1,126.9 206.7,128.7 222.8,103    "/><path class="st4" d="M226.7,118.2c-1.3-1.3-3.1-1.9-5.4-1.9c-2.3,0-4.2,0.6-5.4,1.9c-1.3,1.3-1.9,2.9-1.9,4.9     v1.7c0,2,0.6,3.6,1.9,4.9c1.3,1.3,3.1,1.9,5.5,1.9c2.3,0,4.1-0.6,5.4-1.9c1.3-1.3,1.9-2.9,1.9-4.9v-1.7     C228.6,121.1,228,119.5,226.7,118.2z M223.7,124.9c0,0.8-0.2,1.5-0.5,2c-0.3,0.5-1,0.7-1.9,0.7c-0.7,0-1.3-0.3-1.8-0.8     c-0.5-0.5-0.7-1.2-0.7-1.9v-1.7c0-0.7,0.2-1.4,0.6-1.9c0.4-0.5,1-0.8,1.8-0.8c0.8,0,1.4,0.3,1.8,0.8c0.4,0.5,0.6,1.2,0.6,1.9     V124.9z" id="XMLID_852_"/></g></g><g id="XMLID_1066_"><g id="XMLID_716_"><polygon class="st6" id="XMLID_720_" points="277.6,137.5 277.6,488.8 277.6,488.8 315.2,506 352.8,488.8 352.8,488.8      352.8,137.5    "/><polygon class="st7" id="XMLID_719_" points="314.8,137.5 277.6,137.5 277.6,488.8 277.6,488.8 314.8,505.8    "/><g id="XMLID_717_"><polyline class="st8" id="XMLID_718_" points="315.2,118.7 277.6,137.5 315.2,156.3 352.8,137.5 315.2,118.7     "/></g></g><g id="XMLID_837_"><path class="st7" d="M284.6,55c-3.4,0-6.2,1.1-8.3,3.3c-2.1,2.2-3.2,5-3.2,8.2c0,3.4,0.9,6.1,2.6,8.1     c1.7,2,4.1,3,7.1,3c1.1,0,2.2-0.2,3.1-0.7c1-0.5,1.8-1.1,2.6-2v1.9c0,1.9-0.4,3.4-1.3,4.5c-0.9,1.1-2,1.6-3.4,1.6     c-1.1,0-2.1-0.1-2.9-0.2c-0.9-0.2-1.8-0.4-2.7-0.8l-1.3,5.5c1.1,0.5,2.3,0.8,3.5,1.1c1.2,0.2,2.4,0.4,3.5,0.4     c3.6,0,6.5-1.1,8.9-3.4c2.3-2.3,3.5-5.3,3.5-9.1V68c0-4.1-1.1-7.2-3.2-9.6C290.7,56.2,287.9,55,284.6,55z M288.4,70.3     c-0.5,0.6-1,1-1.7,1.4c-0.7,0.3-1.5,0.5-2.3,0.5c-1.2,0-2.1-0.5-2.7-1.6c-0.6-1-0.9-2.4-0.9-4.1c0-1.5,0.3-2.8,1-4     c0.7-1.1,1.6-1.7,2.8-1.7c1.1,0,2.1,0.5,2.8,1.5c0.7,1,1.1,2.4,1.1,4.3V70.3z" id="XMLID_848_"/><path class="st7" d="M311.5,55c-3.5,0-6.2,1.1-8.3,3.3c-2.1,2.2-3.1,5.3-3.1,9.2v8.7c0,3.9,1,7,3.1,9.2     c2.1,2.2,4.9,3.3,8.4,3.3c3.4,0,6.2-1.1,8.3-3.3c2.1-2.2,3.1-5.3,3.1-9.2v-8.7c0-3.9-1.1-7-3.2-9.2C317.7,56.1,315,55,311.5,55z      M315.4,76.8c0,2.1-0.3,3.6-1,4.7c-0.7,1-1.6,1.6-2.8,1.6c-1.2,0-2.2-0.5-2.9-1.6c-0.7-1-1-2.6-1-4.7v-9.7c0-2,0.3-3.5,1-4.6     c0.7-1.1,1.6-1.6,2.8-1.6c1.2,0,2.2,0.5,2.8,1.6c0.7,1.1,1,2.6,1,4.6V76.8z" id="XMLID_845_"/><polygon class="st7" id="XMLID_844_" points="348,58.4 331.9,84.2 335.4,86 351.5,60.2    "/><path class="st7" d="M339.8,68.4c1.3-1.3,1.9-2.9,1.9-4.9v-1.7c0-2-0.6-3.6-1.9-4.9c-1.3-1.3-3.1-1.9-5.5-1.9     c-2.3,0-4.1,0.6-5.4,1.9c-1.3,1.3-1.9,2.9-1.9,4.9v1.7c0,1.9,0.6,3.6,1.9,4.8c1.3,1.3,3.1,1.9,5.4,1.9     C336.7,70.3,338.5,69.7,339.8,68.4z M331.9,63.6v-1.7c0-0.8,0.2-1.4,0.6-1.9c0.4-0.5,1-0.8,1.8-0.8c0.8,0,1.4,0.3,1.8,0.8     c0.4,0.5,0.6,1.2,0.6,1.9v1.7c0,0.8-0.2,1.4-0.6,1.9c-0.4,0.5-1,0.8-1.8,0.8c-0.8,0-1.4-0.3-1.8-0.8     C332.1,64.9,331.9,64.3,331.9,63.6z" id="XMLID_841_"/><path class="st7" d="M355.5,75.5c-1.3-1.3-3.1-1.9-5.4-1.9c-2.3,0-4.2,0.6-5.4,1.9c-1.3,1.3-1.9,2.9-1.9,4.9v1.7     c0,2,0.6,3.6,1.9,4.9c1.3,1.3,3.1,1.9,5.5,1.9c2.3,0,4.1-0.6,5.4-1.9c1.3-1.3,1.9-2.9,1.9-4.9v-1.7     C357.4,78.4,356.7,76.8,355.5,75.5z M352.5,82.1c0,0.8-0.2,1.5-0.5,2c-0.3,0.5-1,0.7-1.9,0.7c-0.7,0-1.3-0.3-1.8-0.8     c-0.5-0.5-0.7-1.2-0.7-1.9v-1.7c0-0.7,0.2-1.4,0.6-1.9c0.4-0.5,1-0.8,1.8-0.8c0.8,0,1.4,0.3,1.8,0.8c0.4,0.5,0.6,1.2,0.6,1.9     V82.1z" id="XMLID_838_"/></g></g><g id="XMLID_1067_"><g id="XMLID_726_"><polygon class="st9" id="XMLID_730_" points="416,84.4 416,488.8 416,488.8 453.6,506 491.2,488.8 491.2,488.8 491.2,84.4    "/><polygon class="st10" id="XMLID_729_" points="453,84.4 453,505.8 453.4,506 491,488.8 491,488.8 491,84.4    "/><g id="XMLID_727_"><polyline class="st11" id="XMLID_728_" points="453.6,65.6 416,84.4 453.6,103.2 491.2,84.4 453.6,65.6     "/></g></g><g id="XMLID_710_"><polygon class="st9" id="XMLID_836_" points="410.3,11.6 415.6,11.6 415.6,32.8 421.7,32.8 421.7,6 410.3,6.9    "/><path class="st9" d="M438.7,6c-2.8,0-5,0.9-6.7,2.7c-1.7,1.8-2.5,4.2-2.5,7.4v7c0,3.2,0.8,5.6,2.5,7.4     c1.7,1.8,3.9,2.7,6.7,2.7c2.8,0,5-0.9,6.6-2.7c1.7-1.8,2.5-4.2,2.5-7.4v-7c0-3.1-0.8-5.6-2.5-7.4C443.7,6.9,441.5,6,438.7,6z      M441.8,23.4c0,1.6-0.3,2.9-0.8,3.7c-0.5,0.8-1.3,1.3-2.3,1.3c-1,0-1.8-0.4-2.3-1.3c-0.5-0.8-0.8-2.1-0.8-3.7v-7.8     c0-1.6,0.3-2.8,0.8-3.7c0.5-0.8,1.3-1.3,2.3-1.3c1,0,1.7,0.4,2.3,1.3c0.5,0.8,0.8,2.1,0.8,3.7V23.4z" id="XMLID_833_"/><path class="st9" d="M460.2,6c-2.8,0-5,0.9-6.7,2.7c-1.7,1.8-2.5,4.2-2.5,7.4v7c0,3.2,0.8,5.6,2.5,7.4     c1.7,1.8,3.9,2.7,6.7,2.7c2.8,0,5-0.9,6.6-2.7c1.7-1.8,2.5-4.2,2.5-7.4v-7c0-3.1-0.8-5.6-2.5-7.4C465.2,6.9,463,6,460.2,6z      M463.3,23.4c0,1.6-0.3,2.9-0.8,3.7c-0.5,0.8-1.3,1.3-2.3,1.3c-1,0-1.8-0.4-2.3-1.3c-0.5-0.8-0.8-2.1-0.8-3.7v-7.8     c0-1.6,0.3-2.8,0.8-3.7c0.5-0.8,1.3-1.3,2.3-1.3c1,0,1.7,0.4,2.3,1.3c0.5,0.8,0.8,2.1,0.8,3.7V23.4z" id="XMLID_830_"/><polygon class="st9" id="XMLID_829_" points="489.4,8.7 476.5,29.3 479.3,30.8 492.2,10.2    "/><path class="st9" d="M495.4,22.4c-1-1-2.5-1.5-4.4-1.5c-1.9,0-3.3,0.5-4.3,1.5c-1,1-1.5,2.3-1.5,3.9v1.4     c0,1.6,0.5,2.9,1.5,3.9c1,1,2.5,1.5,4.4,1.5c1.9,0,3.3-0.5,4.3-1.5c1-1,1.5-2.3,1.5-3.9v-1.4C496.9,24.7,496.4,23.4,495.4,22.4z      M493,27.7c0,0.7-0.1,1.2-0.4,1.6c-0.3,0.4-0.8,0.6-1.5,0.6c-0.6,0-1-0.2-1.4-0.6c-0.4-0.4-0.6-0.9-0.6-1.5v-1.4     c0-0.6,0.2-1.1,0.5-1.5c0.3-0.4,0.8-0.6,1.4-0.6c0.6,0,1.1,0.2,1.4,0.6c0.3,0.4,0.5,0.9,0.5,1.5V27.7z" id="XMLID_743_"/><path class="st9" d="M482.8,16.7c1-1,1.5-2.3,1.5-3.9v-1.4c0-1.6-0.5-2.9-1.5-3.9S480.4,6,478.5,6     c-1.9,0-3.3,0.5-4.3,1.5s-1.5,2.3-1.5,3.9v1.4c0,1.6,0.5,2.8,1.5,3.9c1,1,2.5,1.5,4.4,1.5C480.4,18.3,481.8,17.8,482.8,16.7z      M476.5,12.8v-1.4c0-0.6,0.2-1.1,0.5-1.5c0.3-0.4,0.8-0.6,1.4-0.6c0.6,0,1.1,0.2,1.4,0.6c0.3,0.4,0.5,0.9,0.5,1.5v1.4     c0,0.6-0.2,1.1-0.5,1.5c-0.3,0.4-0.8,0.6-1.4,0.6c-0.6,0-1.1-0.2-1.5-0.6C476.7,14,476.5,13.5,476.5,12.8z" id="XMLID_731_"/></g></g></g></svg>