<?xml version="1.0" ?><!DOCTYPE svg  PUBLIC '-//W3C//DTD SVG 1.0//EN'  'http://www.w3.org/TR/2001/REC-SVG-20010904/DTD/svg10.dtd'><svg height="54px" style="shape-rendering:geometricPrecision; text-rendering:geometricPrecision; image-rendering:optimizeQuality; fill-rule:evenodd; clip-rule:evenodd" version="1.0" viewBox="0 0 16788 14164" width="64px" xml:space="preserve" xmlns="http://www.w3.org/2000/svg" xmlns:xlink="http://www.w3.org/1999/xlink"><defs><style type="text/css">
   <![CDATA[
    .fil0 {fill:#fff;fill-rule:nonzero}
   ]]>
  </style></defs><g id="Layer_x0020_1"><path class="fil0" d="M8643 4641l0 1 0 2c15,50 16,104 -1,158m1 -158l729 2256 2373 -4c144,0 261,117 261,261 0,87 -42,164 -108,211l0 1 -1923 1391 737 2256c45,138 -31,285 -168,330 -90,29 -185,7 -252,-50l-1900 -1386 -1917 1399c-116,85 -280,59 -365,-57 -51,-70 -62,-157 -37,-234l-1 0 737 -2256 -1923 -1391c-117,-85 -143,-249 -58,-366 54,-75 142,-112 228,-108l2358 4 729 -2258c44,-138 191,-213 329,-169 83,27 144,92 169,169m-8380 -4641l7 0 16256 0c145,0 262,118 262,262l0 7 0 2085 0 7 0 7 0 11535c0,145 -118,262 -262,262l-7 0 -16256 0c-145,0 -262,-118 -262,-262l0 -7 0 -11528 0 -7 0 -7 0 -2085 0 -7c0,-145 118,-262 262,-262zm11562 12590c-145,0 -262,-118 -262,-262 0,-145 118,-262 262,-262l2602 0c145,0 262,118 262,262 0,145 -118,262 -262,262l-2602 0zm1049 -1311c-145,0 -262,-118 -262,-262 0,-145 118,-262 262,-262l2602 0c145,0 262,118 262,262 0,145 -118,262 -262,262l-2602 0zm-11562 -7082c-145,0 -262,-118 -262,-262 0,-145 118,-262 262,-262l2602 0c145,0 262,118 262,262 0,145 -118,262 -262,262l-2602 0zm1049 1311c-145,0 -262,-118 -262,-262 0,-145 118,-262 262,-262l2602 0c145,0 262,118 262,262 0,145 -118,262 -262,262l-2602 0zm6572 1733l-539 -1669 -539 1669 0 0c-34,105 -133,181 -249,181l-1754 -3 1415 1024c94,64 138,184 102,297l-545 1668 1409 -1028 8 -6 1 -1c89,-65 213,-68 307,0l1417 1034 -545 -1668c-34,-105 2,-225 95,-293l1421 -1029 -1739 3c-116,7 -228,-65 -265,-181zm-4998 -6192l524 0 0 525 -524 0 0 -525zm-1311 0l524 0 0 525 -524 0 0 -525zm-1311 0l524 0 0 525 -524 0 0 -525zm14951 1574l-15738 0 0 11017 15738 0 0 -11017zm-15738 -525l15738 0 0 -1573 -15738 0 0 1573z"/></g></svg>