<?xml version="1.0" ?><svg enable-background="new 0 0 32 32" height="32px" id="svg2" version="1.1" viewBox="0 0 32 32" width="32px" fill="
#ffffff" xml:space="preserve" xmlns="http://www.w3.org/2000/svg" xmlns:cc="http://creativecommons.org/ns#" xmlns:dc="http://purl.org/dc/elements/1.1/" xmlns:inkscape="http://www.inkscape.org/namespaces/inkscape" xmlns:rdf="http://www.w3.org/1999/02/22-rdf-syntax-ns#" xmlns:sodipodi="http://sodipodi.sourceforge.net/DTD/sodipodi-0.dtd" xmlns:svg="http://www.w3.org/2000/svg"><g id="background"><rect fill="none" height="32" width="32"/></g><g id="user_x5F_half_x5F_security"><path d="M16,8c2.209,0,4-1.791,4-4s-1.791-4-4-4s-4,1.791-4,4S13.791,8,16,8z M24,14.059C24,12.821,24,12,24,12s0-2-2-2   c-1,0-12,0-12,0s-2,0-2,2v14c0,2,2,2,2,2v4h12v-0.059C22.329,31.978,22.661,32,23,32c4.971-0.002,8.998-4.029,9-9   C31.998,18.366,28.499,14.556,24,14.059z M23,29.883c-3.801-0.009-6.876-3.084-6.884-6.883c0.008-3.801,3.083-6.876,6.884-6.884   c3.799,0.008,6.874,3.083,6.883,6.884C29.874,26.799,26.799,29.874,23,29.883z"/><path d="M26.144,22c0.008-0.131,0.014-0.267,0.014-0.409c-0.006-0.678-0.088-1.492-0.556-2.259   c-0.457-0.779-1.438-1.36-2.602-1.333c-1.165-0.027-2.148,0.554-2.605,1.333c-0.47,0.767-0.552,1.581-0.556,2.259   c0,0.143,0.006,0.278,0.014,0.409H19v5h8v-5H26.144z M21.837,21.591c-0.004-0.478,0.093-0.958,0.254-1.198   c0.173-0.227,0.27-0.366,0.909-0.394c0.637,0.027,0.73,0.165,0.904,0.394c0.162,0.24,0.259,0.723,0.253,1.198   c0,0.145-0.008,0.28-0.019,0.409h-2.282C21.846,21.869,21.837,21.732,21.837,21.591z"/></g></svg>