<?xml version="1.0" ?><!DOCTYPE svg  PUBLIC '-//W3C//DTD SVG 1.1//EN'  'http://www.w3.org/Graphics/SVG/1.1/DTD/svg11.dtd'><svg enable-background="new 0 0 128 128" id="Слой_1" version="1.1" viewBox="0 0 128 128" xml:space="preserve" xmlns="http://www.w3.org/2000/svg" xmlns:xlink="http://www.w3.org/1999/xlink"><g><g><g><g><path d="M107,101.512H21c-1.66,0-3.011-1.352-3.011-3.012v-69c0-1.66,1.351-3.012,3.011-3.012h86      c1.66,0,3.011,1.352,3.011,3.012v69C110.011,100.16,108.66,101.512,107,101.512z M21,28.512c-0.545,0-0.989,0.443-0.989,0.988      v69c0,0.545,0.443,0.988,0.989,0.988h86c0.545,0,0.989-0.443,0.989-0.988v-69c0-0.545-0.443-0.988-0.989-0.988H21z" fill="#323638"/></g><g><path d="M109,39.5H19c-0.276,0-0.5-0.224-0.5-0.5s0.224-0.5,0.5-0.5h90c0.276,0,0.5,0.224,0.5,0.5      S109.276,39.5,109,39.5z" fill="#323638"/></g><g><circle cx="24.553" cy="33.061" fill="red" r="1.9"/></g><g><circle cx="29.953" cy="33.061" fill="#19578B" r="1.9"/></g><g><circle cx="35.353" cy="33.061" fill="green" r="1.9"/></g></g></g><g><g><g><path d="M80.199,90.849l-8.058-7.979c-0.661-0.671-0.654-1.745,0.01-2.4l2.351-2.319      c0.642-0.634,1.758-0.628,2.394,0.016l7.967,8.078L80.199,90.849z M75.691,79.163c-0.036,0-0.089,0.01-0.135,0.055l-2.351,2.319      c-0.076,0.074-0.077,0.197-0.002,0.273l6.998,6.929l2.541-2.509l-6.913-7.011C75.782,79.173,75.728,79.163,75.691,79.163z" fill="#19578B"/></g></g><g><g><path d="M60.234,82.616c-9.256,0-16.787-7.53-16.787-16.786s7.53-16.786,16.787-16.786      c9.256,0,16.786,7.53,16.786,16.786S69.49,82.616,60.234,82.616z M60.234,50.544c-8.429,0-15.287,6.857-15.287,15.286      s6.857,15.286,15.287,15.286c8.429,0,15.286-6.857,15.286-15.286S68.663,50.544,60.234,50.544z" fill="#19578B"/></g></g></g></g></svg>