<svg xmlns="http://www.w3.org/2000/svg" viewBox="0 0 363.448 229.752"><g fill="#500707"><path d="M250.071 0h-136.689v112.81h136.688v-112.81zm-7.802 105.014h-121.09v-97.218h121.09v97.218zM225.36 13.596h11.638v7.796h-11.638zM363.448 217.996l-.543-16.941c-.763-15.942-10.332-28.354-25.607-33.211-14.534-4.604-37.3-4.616-51.834 0-8.21 2.611-14.916 7.495-19.392 14.028l-22.68-39.798c3.595-3.648 8.549-6.41 14.432-8.027 8.092-2.229 19.677-3.187 30.912-2.681l1.053 15.544c.812 11.96 11.762 17.409 21.589 17.409 9.833 0 20.783-5.449 21.595-17.409l1.381-20.315c.359-5.304-2.225-9.914-7.275-12.981-7.125-4.331-18.359-5.035-26.812-2.117.317-1.106.521-2.292.606-3.554l1.252-18.438c.334-4.954-2.073-9.258-6.78-12.116-7.823-4.755-21.041-4.758-28.864.003-4.701 2.858-7.108 7.16-6.77 12.113l1.252 18.438c.617 9.134 7.603 14.171 15.125 15.66-7.561.376-14.69 1.376-20.326 2.923-6.41 1.763-11.982 4.696-16.34 8.576l-5.781-10.145h-103.828l-5.575 9.784c-4.414-3.708-9.994-6.518-16.383-8.221-5.714-1.526-12.925-2.521-20.573-2.901 7.555-1.467 14.588-6.507 15.211-15.676l1.247-18.438c.336-4.954-2.069-9.255-6.773-12.113-7.823-4.761-21.043-4.758-28.861-.003-4.707 2.858-7.114 7.163-6.781 12.116l1.252 18.44c.086 1.26.293 2.445.607 3.552-8.462-2.915-19.687-2.214-26.809 2.117-5.051 3.067-7.635 7.678-7.277 12.981l1.381 20.315c.811 11.96 11.762 17.409 21.594 17.409 9.827 0 20.778-5.449 21.589-17.409l1.056-15.577c11.366-.439 22.961.543 31.128 2.719 5.833 1.559 10.781 4.17 14.448 7.609l-22.914 40.206c-4.481-6.528-11.189-11.412-19.394-14.023-14.534-4.61-37.303-4.61-51.832 0-15.27 4.852-24.842 17.269-25.614 33.275l-.54 16.877h76.794l-6.697 11.756h223.259l-6.7-11.756h76.792zm-63.714-97.718c2.993-1.818 7.318-2.729 11.648-2.729 4.326 0 8.651.911 11.644 2.728 3.783 2.299 3.605 4.927 3.547 5.791l-1.381 20.316c-.474 7.001-7.28 10.133-13.814 10.133-6.528 0-13.336-3.132-13.809-10.133l-1.376-20.316c-.059-.865-.236-3.493 3.541-5.79zm-11.197 3.276c-.736-.032-1.473-.054-2.214-.075.795-.178 1.579-.393 2.349-.65-.049.24-.098.483-.135.725zm-19.795-16.139l-1.252-18.438c-.048-.73-.198-2.952 3.041-4.924 5.336-3.243 15.422-3.246 20.768-.002 3.245 1.975 3.095 4.196 3.047 4.927l-1.252 18.438c-.473 6.996-7.877 8.86-12.176 8.86s-11.704-1.868-12.176-8.861zm-201.485 18.652l-1.375 20.316c-.475 7.001-7.278 10.133-13.809 10.133-6.534 0-13.339-3.132-13.814-10.133l-1.381-20.316c-.06-.864-.237-3.492 3.546-5.791 2.993-1.819 7.318-2.728 11.646-2.728 4.325 0 8.653.911 11.646 2.729 3.778 2.298 3.6 4.926 3.541 5.79zm7.652-2.541c-.038-.236-.081-.467-.132-.703.755.252 1.523.467 2.3.645-.723.011-1.449.032-2.168.058zm-4.551-16.111l-1.252-18.438c-.049-.73-.199-2.952 3.049-4.927 2.668-1.62 6.523-2.432 10.381-2.432 3.858 0 7.713.812 10.381 2.434 3.245 1.972 3.092 4.194 3.044 4.924l-1.247 18.438c-.476 6.993-7.877 8.857-12.173 8.857-4.301.001-11.708-1.863-12.183-8.856zm-62.304 102.779l.282-8.764c.612-12.739 7.968-22.271 20.181-26.15 12.987-4.138 34.119-4.138 47.106 0 8.011 2.541 13.973 7.512 17.307 14.399l-11.692 20.515h-73.184zm75.46 11.756l50.829-89.193h94.762l50.829 89.193h-196.42zm187.012-32.265c3.326-6.888 9.29-11.857 17.302-14.404 12.986-4.138 34.119-4.138 47.105 0 12.219 3.879 19.574 13.411 20.182 26.086l.284 8.828h-73.187l-11.686-20.51zM150.615 87.567c.43-8.909 5.575-15.574 14.112-18.287 9.215-2.923 24.784-2.923 33.993 0 8.543 2.713 13.686 9.378 14.104 18.171l.103 5.395 7.801-.145-.107-5.507c-.58-12.167-7.888-21.643-19.536-25.345-3.299-1.048-7.168-1.776-11.257-2.187 5.072-2.232 8.42-6.619 8.796-12.143l1.011-14.923c.289-4.302-1.784-8.027-5.841-10.494-6.528-3.971-17.592-3.973-24.136-.002-4.06 2.466-6.137 6.192-5.846 10.499l1.015 14.921c.374 5.524 3.721 9.911 8.793 12.143-4.089.411-7.954 1.139-11.253 2.187-11.646 3.702-18.954 13.175-19.544 25.46l-.097 5.395 7.796.14.093-5.278zm21.992-40.577l-1.016-14.921c-.035-.529-.131-1.942 2.115-3.304 2.061-1.252 5.04-1.878 8.019-1.878s5.959.626 8.017 1.878c2.24 1.362 2.149 2.772 2.111 3.304l-1.01 14.923c-.35 5.121-5.895 6.488-9.118 6.488s-8.771-1.367-9.118-6.49z"/></g></svg>