<?xml version="1.0" ?><!DOCTYPE svg  PUBLIC '-//W3C//DTD SVG 1.0//EN'  'http://www.w3.org/TR/2001/REC-SVG-20010904/DTD/svg10.dtd'><svg height="54px" style="shape-rendering:geometricPrecision; text-rendering:geometricPrecision; image-rendering:optimizeQuality; fill-rule:evenodd; clip-rule:evenodd" version="1.0" viewBox="0 0 35313 29795" width="64px" xml:space="preserve" xmlns="http://www.w3.org/2000/svg" xmlns:xlink="http://www.w3.org/1999/xlink"><defs><style type="text/css">
   <![CDATA[
    .fil0 {fill:#fff;fill-rule:nonzero}
   ]]>
  </style></defs><g id="Layer_x0020_1"><path class="fil0" d="M552 0l14 0 34195 0c304,0 552,248 552,552l0 14 0 4385 0 14 0 14 0 24263c0,304 -248,552 -552,552l-14 0 -34195 0c-304,0 -552,-248 -552,-552l0 -14 0 -24249 0 -14 0 -14 0 -4399c0,-304 248,-552 552,-552zm9723 18882c237,189 275,535 86,772 -189,237 -535,275 -772,86l-2717 -2173c-151,-98 -251,-269 -251,-462 0,-193 100,-364 251,-462l2717 -2173c237,-189 583,-151 772,86 189,237 151,583 -86,772l-1533 1226 6706 0 0 -2160 -3308 -30c-302,-2 -544,-248 -545,-549l-3 0 0 -3310 -6628 0 0 13793 10483 0 0 -3329 -1655 0c-304,0 -552,-248 -552,-552 0,-304 248,-552 552,-552l1655 0 0 -2207 -6706 0 1532 1226zm11244 -2330c304,0 552,248 552,552 0,304 -248,552 -552,552l-1655 0 0 2207 6707 0 -1533 -1226c-237,-189 -275,-535 -86,-772 189,-237 535,-275 772,-86l2717 2173c151,98 251,269 251,462 0,193 -100,364 -251,462l-2717 2173c-237,189 -583,151 -772,-86 -189,-237 -151,-583 86,-772l1532 -1226 -6707 0 0 3329 10483 0 0 -9904 -3308 -30c-302,-2 -544,-248 -545,-549l-3 0 0 -3310 -6628 0 0 6050 1655 0zm-2759 1104l-2207 0 0 2207 2207 0 0 -2207zm-2207 -1104l2207 0 0 -6601c0,-304 248,-552 552,-552l14 0 7703 0 14 0 8 0 7 0 1 0 8 1 5 0 3 0 8 1 3 0 5 1 7 1 2 0 6 1 8 1 1 0 7 1 7 1 1 0 7 1 6 1 2 1 7 1 4 1 4 1 7 2 3 1 5 1 7 2 1 1 6 1 8 2 7 2 6 2 1 1 7 2 5 2 3 1 7 3 3 1 4 2 7 3 2 1 5 2 7 3 1 1 7 3 6 3 1 0 7 3 5 3 1 1 7 3 3 2 3 1 7 3 2 1 4 3 7 3 1 1 5 3 7 4 18 12 4 3 2 1 6 4 3 2 3 3 5 3 2 1 1 1 4 3 6 5 1 1 5 4 5 5 1 0 5 5 5 4 1 1 5 5 3 3 2 2 5 5 3 3 5 5 3 3 2 1 3 4 5 5 1 1 5 5 5 5 5 6 3 4 1 1 3827 3869 10 10 1 1c56,59 96,128 121,201l1 3 1 3 4 12 2 7 1 4 1 3 10 45 1 6 1 1 1 13 1 0c4,26 6,53 6,79l2 0 0 11000c0,304 -248,552 -552,552l-14 0 -11572 0c-304,0 -552,-248 -552,-552l0 -14 0 -3867 -2207 0 0 3881c0,304 -248,552 -552,552l-14 0 -11572 0c-304,0 -552,-248 -552,-552l0 -14 0 -14883c0,-304 248,-552 552,-552l14 0 7703 0 14 0 8 0 7 0 1 0 8 1 5 0 3 0 8 1 3 0 5 1 7 1 2 0 6 1 8 1 1 0 7 1 7 1 1 0 7 1 6 1 2 1 7 1 4 1 4 1 7 2 3 1 5 1 7 2 1 1 6 1 8 2 7 2 6 2 1 1 7 2 5 2 3 1 7 3 3 1 4 2 7 3 2 1 5 2 7 3 1 1 7 3 6 3 1 0 7 3 5 3 1 1 7 3 3 2 3 1 7 3 2 1 4 3 7 3 1 1 5 3 7 4 18 12 4 3 2 1 6 4 3 2 3 3 5 3 2 1 1 1 4 3 6 5 1 1 5 4 5 5 1 0 5 5 5 4 1 1 5 5 3 3 2 2 5 5 3 3 5 5 3 3 2 1 3 4 5 5 1 1 5 5 5 5 5 6 3 4 1 1 3827 3869 10 10 1 1c56,59 96,128 121,201l1 3 1 3 4 12 2 7 1 4 1 3 10 45 1 6 1 1 1 13 1 0c4,26 6,53 6,79l2 0 0 2704zm11042 -5261l0 1977 1974 18 -1974 -1995zm-14897 0l0 1977 1974 18 -1974 -1995zm-4422 -9085l1103 0 0 1104 -1103 0 0 -1104zm-2759 0l1103 0 0 1104 -1103 0 0 -1104zm-2759 0l1103 0 0 1104 -1103 0 0 -1104zm31450 3311l-33105 0 0 23174 33105 0 0 -23174zm-33105 -1104l33105 0 0 -3310 -33105 0 0 3310z"/></g></svg>