<?xml version="1.0" ?><!DOCTYPE svg  PUBLIC '-//W3C//DTD SVG 1.1//EN'  'http://www.w3.org/Graphics/SVG/1.1/DTD/svg11.dtd'><svg enable-background="new 0 0 100 100" height="100px" id="Layer_1" version="1.1" viewBox="0 0 100 100" width="100px" xml:space="preserve" xmlns="http://www.w3.org/2000/svg" xmlns:xlink="http://www.w3.org/1999/xlink"><g><g><radialGradient cx="1386.1025" cy="732.6689" gradientTransform="matrix(0.8883 0 0 0.8784 -1182.1387 -602.4229)" gradientUnits="userSpaceOnUse" id="SVGID_1_" r="37.0645"><stop offset="0" style="stop-color:#FAAE58"/><stop offset="0.4629" style="stop-color:#F8C16A"/><stop offset="1" style="stop-color:#F6D37A"/></radialGradient><path d="M19.433,14.453c-4.88,0-8.851,3.925-8.851,8.754v35.197c0,4.828,3.971,8.754,8.851,8.754h58.659    c4.881,0,8.85-3.926,8.85-8.754V23.207c0-4.829-3.969-8.754-8.85-8.754H19.433z" fill="url(#SVGID_1_)"/><linearGradient gradientTransform="matrix(0.7619 0 0 0.7619 -184.8828 -845.9321)" gradientUnits="userSpaceOnUse" id="SVGID_2_" x1="299.5596" x2="311.2484" y1="1124.0742" y2="1189.5349"><stop offset="0" style="stop-color:#FCB837"/><stop offset="0.4124" style="stop-color:#FFD334"/><stop offset="0.7401" style="stop-color:#F69E53"/></linearGradient><path d="M86.137,58.404c0,4.377-3.619,7.955-8.045,7.955H19.433c-4.426,0-8.043-3.578-8.043-7.955V23.207    c0-4.379,3.617-7.959,8.043-7.959h58.659c4.426,0,8.045,3.58,8.045,7.959V58.404z" fill="url(#SVGID_2_)"/><path d="M78.092,15.698H19.433c-4.426,0-8.043,3.583-8.043,7.958v1.403c0-4.377,3.617-7.959,8.043-7.959h58.659    c4.426,0,8.045,3.582,8.045,7.959v-1.403C86.137,19.28,82.518,15.698,78.092,15.698z" fill="#FFE7D4"/><g><g><path d="M14.756,58.164c0,0.744,0.775,1.354,1.727,1.354l60.935,0.002c0.953,0,1.729-0.611,1.729-1.354V20.037      c0-0.745-0.775-1.355-1.725-1.355H35.663c-0.953,0-2.278,0.43-2.956,0.953L15.975,32.736c-0.672,0.526-1.219,1.567-1.219,2.31      V58.164z" fill="#BDB9C1"/><linearGradient gradientTransform="matrix(0 -0.7512 0.9489 0 333.4478 189.8013)" gradientUnits="userSpaceOnUse" id="SVGID_3_" x1="201.0664" x2="201.0664" y1="-335.5601" y2="-269.5181"><stop offset="0" style="stop-color:#FFFFFF"/><stop offset="0.4837" style="stop-color:#FDFDFD"/><stop offset="0.7117" style="stop-color:#F5F6F6"/><stop offset="0.8856" style="stop-color:#E9E9EA"/><stop offset="1" style="stop-color:#DBDCDD"/></linearGradient><path d="M15.907,57.037c0,0.746,0.78,1.352,1.725,1.352H76.85c0.943,0,1.725-0.605,1.725-1.352V20.483      c0-0.742-0.781-1.351-1.725-1.351H35.952c-0.952,0-2.28,0.429-2.949,0.956L17.127,32.511c-0.665,0.526-1.22,1.566-1.22,2.311      V57.037z" fill="url(#SVGID_3_)"/><linearGradient gradientTransform="matrix(0 0.7512 -0.9489 0 171.1948 -149.3013)" gradientUnits="userSpaceOnUse" id="SVGID_4_" x1="236.2969" x2="242.0238" y1="152.1777" y2="146.4508"><stop offset="0" style="stop-color:#FFFFFF"/><stop offset="0.3511" style="stop-color:#F2F3F3"/><stop offset="0.998" style="stop-color:#D0D2D3"/><stop offset="1" style="stop-color:#D0D2D3"/></linearGradient><path d="M20.495,32.745h8.635c1.822,0,3.294-1.157,3.294-2.58v-7.027L20.495,32.745z" fill="url(#SVGID_4_)"/><radialGradient cx="215.2021" cy="-325.0342" gradientTransform="matrix(0 -0.7502 0.9582 0 335.9453 189.5703)" gradientUnits="userSpaceOnUse" id="SVGID_5_" r="10.4914"><stop offset="0" style="stop-color:#FFFFFF"/><stop offset="0.486" style="stop-color:#FDFDFD"/><stop offset="0.661" style="stop-color:#F6F7F7"/><stop offset="0.7858" style="stop-color:#EBEBEC"/><stop offset="0.8866" style="stop-color:#DADBDC"/><stop offset="0.972" style="stop-color:#C4C6C7"/><stop offset="1" style="stop-color:#BBBDBF"/></radialGradient><path d="M31.146,33.272l-14.211,0.624l0,0l0,0l16.232,0.958c0.949,0,1.728-0.608,1.728-1.354V21.192l0,0      l0,0l-2.014,10.733C32.881,32.666,32.096,33.272,31.146,33.272z" fill="url(#SVGID_5_)"/><linearGradient gradientTransform="matrix(0 -0.7512 0.9489 0 333.4478 189.8013)" gradientUnits="userSpaceOnUse" id="SVGID_6_" x1="188.3564" x2="216.1613" y1="-255.8887" y2="-283.6935"><stop offset="0" style="stop-color:#D0D2D3"/><stop offset="0.4719" style="stop-color:#FFFFFF"/><stop offset="0.6573" style="stop-color:#F2F3F3"/><stop offset="0.9989" style="stop-color:#D0D2D3"/><stop offset="1" style="stop-color:#D0D2D3"/></linearGradient><path d="M78.574,58.389V19.132C78.574,19.132,74.252,34.292,78.574,58.389z" fill="url(#SVGID_6_)"/></g><path d="M24.834,46.658c0.506,0,0.918,0.32,0.918,0.716v7.34c0,0.396-0.412,0.719-0.918,0.719l0,0     c-0.504,0-0.917-0.322-0.917-0.719v-7.34C23.918,46.978,24.33,46.658,24.834,46.658L24.834,46.658z" fill="#BDB9C1"/><path d="M28.232,44.241c0.509,0,0.919,0.32,0.919,0.717v9.757c0,0.396-0.415,0.719-0.919,0.719l0,0     c-0.505,0-0.919-0.322-0.919-0.719l0.002-9.757C27.316,44.561,27.728,44.241,28.232,44.241L28.232,44.241z" fill="#BDB9C1"/><path d="M31.63,41.824c0.509,0,0.916,0.32,0.916,0.715v12.176c0,0.396-0.407,0.719-0.916,0.719l0,0     c-0.507,0-0.918-0.322-0.918-0.719V42.539C30.711,42.144,31.123,41.824,31.63,41.824L31.63,41.824z" fill="#BDB9C1"/><path d="M47.688,26.732c0.504,0,0.916,0.32,0.916,0.717v27.266c0,0.396-0.412,0.719-0.916,0.719l0,0     c-0.504,0-0.916-0.322-0.916-0.719V27.449C46.772,27.052,47.184,26.732,47.688,26.732L47.688,26.732z" fill="#BDB9C1"/><path d="M42.747,33.742c0.506,0,0.917,0.321,0.917,0.717v20.256c0,0.396-0.41,0.719-0.917,0.719l0,0     c-0.504,0-0.918-0.322-0.918-0.719l0.004-20.256C41.833,34.063,42.243,33.742,42.747,33.742L42.747,33.742z" fill="#BDB9C1"/><path d="M54.793,22.622c0.508,0,0.916,0.322,0.916,0.716v31.377c0,0.396-0.408,0.719-0.92,0.719l0,0     c-0.502,0-0.914-0.322-0.914-0.719V23.338C53.875,22.944,54.287,22.622,54.793,22.622L54.793,22.622z" fill="#BDB9C1"/><path d="M59.428,22.622c0.504,0,0.914,0.322,0.914,0.716v31.377c0,0.396-0.41,0.719-0.914,0.719l0,0     c-0.51,0-0.92-0.322-0.92-0.719V23.338C58.508,22.944,58.918,22.622,59.428,22.622L59.428,22.622z" fill="#BDB9C1"/><path d="M64.361,22.622c0.51,0,0.92,0.322,0.92,0.716v31.377c0,0.396-0.41,0.719-0.92,0.719l0,0     c-0.504,0-0.912-0.322-0.912-0.719V23.338C63.449,22.944,63.857,22.622,64.361,22.622L64.361,22.622z" fill="#BDB9C1"/><path d="M68.998,22.622c0.508,0,0.918,0.322,0.918,0.716v31.377c0,0.396-0.41,0.719-0.918,0.719l0,0     c-0.504,0-0.918-0.322-0.918-0.719V23.338C68.08,22.944,68.494,22.622,68.998,22.622L68.998,22.622z" fill="#BDB9C1"/></g><radialGradient cx="1393.4902" cy="775.792" gradientTransform="matrix(0.8883 0 0 0.8784 -1182.1367 -602.4229)" gradientUnits="userSpaceOnUse" id="SVGID_7_" r="76.6101"><stop offset="0" style="stop-color:#FAAE58"/><stop offset="0.4629" style="stop-color:#F8C16A"/><stop offset="1" style="stop-color:#F6D37A"/></radialGradient><path d="M86.869,59.012c-0.406,4.078-4.352,7.348-8.777,7.348H19.433c-4.426,0-8.37-3.27-8.776-7.348    L9.235,44.735c-0.447-4.483,3.089-8.232,7.866-8.232h17.867c4.779,0,11.434-2.012,14.825-4.496    c3.437-2.514,10.276-4.594,15.159-4.594h16.182c4.881,0,8.49,3.916,8.021,8.599L86.869,59.012z" fill="url(#SVGID_7_)"/><path d="M81.02,28.304H64.898c-4.871,0-11.684,2.065-15.107,4.562c-3.381,2.471-10.012,4.466-14.773,4.466H17.211    c-4.763,0-8.285,3.719-7.841,8.175l0.141,1.407c-0.442-4.423,3.071-8.117,7.814-8.117h17.742c4.741,0,11.353-1.98,14.721-4.432    c3.406-2.477,10.203-4.531,15.05-4.531h16.061c4.848,0,8.436,3.862,7.977,8.478l0.145-1.469    C89.484,32.192,85.887,28.304,81.02,28.304z" fill="#FFE7D4"/><g><radialGradient cx="1393.4902" cy="775.793" gradientTransform="matrix(0.8883 0 0 0.8784 -1182.1299 -602.415)" gradientUnits="userSpaceOnUse" id="SVGID_8_" r="76.6103"><stop offset="0.0113" style="stop-color:#FFD48D"/><stop offset="0.0579" style="stop-color:#FFD48C"/><stop offset="1" style="stop-color:#F6D37A"/></radialGradient><path d="M81.135,27.413h-2.561v0.891h2.445c4.867,0,8.465,3.888,8,8.54l-0.145,1.469     c0.459-4.616-3.129-8.478-7.977-8.478h-2.324v27.203v1.352c-0.047-0.271-0.096-0.543-0.141-0.814     c-0.27,0.479-0.881,0.814-1.584,0.814H17.632c-0.944,0-1.725-0.605-1.725-1.352V38.913c-4.004,0.652-6.793,4.032-6.396,8.001     L9.37,45.507c-0.402-4.039,2.455-7.472,6.538-8.08v-0.842c-4.155,0.564-7.08,4.049-6.672,8.15l1.421,14.277     c0.407,4.078,4.35,7.348,8.776,7.348h58.659c4.426,0,8.371-3.27,8.777-7.348l2.287-23C89.625,31.329,86.016,27.413,81.135,27.413     z" fill="url(#SVGID_8_)"/><radialGradient cx="1393.4893" cy="775.8105" gradientTransform="matrix(0.8883 0 0 0.8784 -1182.1299 -602.415)" gradientUnits="userSpaceOnUse" id="SVGID_9_" r="76.639"><stop offset="0" style="stop-color:#FAAE58"/><stop offset="0.4629" style="stop-color:#F8C16A"/><stop offset="1" style="stop-color:#F6D37A"/></radialGradient><path d="M49.791,32.865c1.08-0.786,2.498-1.532,4.084-2.181v-0.867c-1.586,0.653-3.002,1.4-4.081,2.19     c-0.358,0.266-0.76,0.523-1.19,0.775v0.854C49.034,33.386,49.433,33.128,49.791,32.865z" fill="url(#SVGID_9_)"/><radialGradient cx="1393.4902" cy="775.7803" gradientTransform="matrix(0.8883 0 0 0.8784 -1182.1299 -602.415)" gradientUnits="userSpaceOnUse" id="SVGID_10_" r="76.5966"><stop offset="0" style="stop-color:#FAAE58"/><stop offset="0.4629" style="stop-color:#F8C16A"/><stop offset="1" style="stop-color:#F6D37A"/></radialGradient><path d="M58.508,29.181v-0.877c-0.947,0.238-1.889,0.515-2.799,0.826v0.869     C56.619,29.691,57.561,29.415,58.508,29.181z" fill="url(#SVGID_10_)"/><radialGradient cx="1393.4912" cy="775.7891" gradientTransform="matrix(0.8883 0 0 0.8784 -1182.1299 -602.415)" gradientUnits="userSpaceOnUse" id="SVGID_11_" r="76.6097"><stop offset="0" style="stop-color:#FFC85D"/><stop offset="0.3377" style="stop-color:#FCCC68"/><stop offset="1" style="stop-color:#F6D37A"/></radialGradient><path d="M76.943,29.834h-7.027v24.88c0,0.396-0.41,0.719-0.918,0.719c-0.504,0-0.918-0.322-0.918-0.719     v-24.88h-2.799v24.88c0,0.396-0.41,0.719-0.92,0.719c-0.504,0-0.912-0.322-0.912-0.719v-24.83     c-0.996,0.071-2.041,0.213-3.107,0.413v24.417c0,0.396-0.41,0.719-0.914,0.719c-0.51,0-0.92-0.322-0.92-0.719V30.696     c-0.947,0.233-1.889,0.506-2.799,0.814v23.204c0,0.396-0.408,0.719-0.92,0.719c-0.502,0-0.914-0.322-0.914-0.719V32.192     c-1.589,0.647-3.008,1.389-4.087,2.173c-0.359,0.261-0.756,0.516-1.184,0.766v19.584c0,0.396-0.412,0.719-0.916,0.719     s-0.916-0.322-0.916-0.719V36.074c-0.967,0.44-2.017,0.845-3.108,1.2v17.441c0,0.396-0.41,0.719-0.917,0.719     c-0.504,0-0.918-0.322-0.918-0.719l0.004-16.901c-2.333,0.615-4.722,0.983-6.766,0.983H17.325c-0.486,0-0.961,0.041-1.417,0.116     v18.125c0,0.746,0.78,1.352,1.725,1.352H76.85c0.703,0,1.314-0.336,1.584-0.814C76.426,45.961,76.426,36.476,76.943,29.834z      M25.752,54.715c0,0.396-0.412,0.719-0.918,0.719c-0.504,0-0.917-0.322-0.917-0.719v-7.34c0-0.396,0.412-0.716,0.917-0.716     c0.506,0,0.918,0.32,0.918,0.716V54.715z M29.152,54.715c0,0.396-0.415,0.719-0.919,0.719s-0.919-0.322-0.919-0.719l0.002-9.757     c0-0.397,0.412-0.717,0.917-0.717c0.509,0,0.919,0.32,0.919,0.717V54.715z M32.546,54.715c0,0.396-0.407,0.719-0.916,0.719     c-0.507,0-0.918-0.322-0.918-0.719V42.539c0-0.395,0.412-0.715,0.918-0.715c0.509,0,0.916,0.32,0.916,0.715V54.715z" fill="url(#SVGID_11_)"/><radialGradient cx="1393.4912" cy="775.7568" gradientTransform="matrix(0.8883 0 0 0.8784 -1182.1299 -602.415)" gradientUnits="userSpaceOnUse" id="SVGID_12_" r="76.5605"><stop offset="0" style="stop-color:#FAAE58"/><stop offset="0.4629" style="stop-color:#F8C16A"/><stop offset="1" style="stop-color:#F6D37A"/></radialGradient><path d="M17.211,37.332h17.807c2.06,0,4.47-0.373,6.815-0.997v-0.842c-2.36,0.63-4.789,1.011-6.864,1.011     H17.102c-0.409,0-0.805,0.029-1.194,0.082v0.842C16.331,37.365,16.767,37.332,17.211,37.332z" fill="url(#SVGID_12_)"/><radialGradient cx="1393.4932" cy="775.8252" gradientTransform="matrix(0.8883 0 0 0.8784 -1182.1299 -602.415)" gradientUnits="userSpaceOnUse" id="SVGID_13_" r="76.648"><stop offset="0" style="stop-color:#FAAE58"/><stop offset="0.4629" style="stop-color:#F8C16A"/><stop offset="1" style="stop-color:#F6D37A"/></radialGradient><path d="M77.076,28.304c0.029-0.304,0.063-0.601,0.09-0.891h-7.25v0.891H77.076z" fill="url(#SVGID_13_)"/><radialGradient cx="1393.4902" cy="775.8252" gradientTransform="matrix(0.8883 0 0 0.8784 -1182.1299 -602.415)" gradientUnits="userSpaceOnUse" id="SVGID_14_" r="76.6535"><stop offset="0" style="stop-color:#FAAE58"/><stop offset="0.4629" style="stop-color:#F8C16A"/><stop offset="1" style="stop-color:#F6D37A"/></radialGradient><rect fill="url(#SVGID_14_)" height="0.891" width="2.799" x="65.281" y="27.413"/><radialGradient cx="1393.4893" cy="775.7607" gradientTransform="matrix(0.8883 0 0 0.8784 -1182.1299 -602.415)" gradientUnits="userSpaceOnUse" id="SVGID_15_" r="76.5724"><stop offset="0" style="stop-color:#FAAE58"/><stop offset="0.4629" style="stop-color:#F8C16A"/><stop offset="1" style="stop-color:#F6D37A"/></radialGradient><path d="M63.449,28.359v-0.885c-0.996,0.075-2.045,0.221-3.107,0.425v0.878     C61.408,28.575,62.453,28.432,63.449,28.359z" fill="url(#SVGID_15_)"/><radialGradient cx="1393.4893" cy="775.7969" gradientTransform="matrix(0.8883 0 0 0.8784 -1182.1299 -602.415)" gradientUnits="userSpaceOnUse" id="SVGID_16_" r="76.6188"><stop offset="0" style="stop-color:#FAAE58"/><stop offset="0.4629" style="stop-color:#F8C16A"/><stop offset="1" style="stop-color:#F6D37A"/></radialGradient><path d="M46.772,34.584v-0.851c-0.967,0.444-2.017,0.853-3.108,1.211v0.846     C44.755,35.434,45.805,35.027,46.772,34.584z" fill="url(#SVGID_16_)"/><radialGradient cx="1393.8125" cy="775.7607" gradientTransform="matrix(0.8883 0 0 0.8784 -1182.1299 -602.415)" gradientUnits="userSpaceOnUse" id="SVGID_17_" r="76.0443"><stop offset="0" style="stop-color:#FAAE58"/><stop offset="0.4629" style="stop-color:#F8C16A"/><stop offset="1" style="stop-color:#F6D37A"/></radialGradient><path d="M78.574,58.389v-1.352c0,0.191-0.049,0.373-0.141,0.537     C78.479,57.846,78.527,58.117,78.574,58.389z" fill="url(#SVGID_17_)"/><radialGradient cx="1393.4785" cy="775.8252" gradientTransform="matrix(0.8883 0 0 0.8784 -1182.1299 -602.415)" gradientUnits="userSpaceOnUse" id="SVGID_18_" r="76.654"><stop offset="0" style="stop-color:#FAAE58"/><stop offset="0.4629" style="stop-color:#F8C16A"/><stop offset="1" style="stop-color:#F6D37A"/></radialGradient><path d="M77.076,28.304h1.498v-0.891h-1.408C77.139,27.703,77.105,28,77.076,28.304z" fill="url(#SVGID_18_)"/><radialGradient cx="1393.5137" cy="775.7939" gradientTransform="matrix(0.8883 0 0 0.8784 -1182.1299 -602.415)" gradientUnits="userSpaceOnUse" id="SVGID_19_" r="76.5746"><stop offset="0" style="stop-color:#FAAE58"/><stop offset="0.4629" style="stop-color:#F8C16A"/><stop offset="1" style="stop-color:#F6D37A"/></radialGradient><path d="M78.434,57.574c0.092-0.164,0.141-0.346,0.141-0.537V29.834h-1.631     C76.426,36.476,76.426,45.961,78.434,57.574z" fill="url(#SVGID_19_)"/><radialGradient cx="1393.4844" cy="775.7969" gradientTransform="matrix(0.8883 0 0 0.8784 -1182.1299 -602.415)" gradientUnits="userSpaceOnUse" id="SVGID_20_" r="76.6041"><stop offset="0" style="stop-color:#FAAE58"/><stop offset="0.4629" style="stop-color:#F8C16A"/><stop offset="1" style="stop-color:#F6D37A"/></radialGradient><path d="M24.834,46.658c-0.504,0-0.917,0.32-0.917,0.716v7.34c0,0.396,0.412,0.719,0.917,0.719     c0.506,0,0.918-0.322,0.918-0.719v-7.34C25.752,46.978,25.341,46.658,24.834,46.658z" fill="url(#SVGID_20_)"/><radialGradient cx="1393.4893" cy="775.791" gradientTransform="matrix(0.8883 0 0 0.8784 -1182.1299 -602.415)" gradientUnits="userSpaceOnUse" id="SVGID_21_" r="76.6078"><stop offset="0" style="stop-color:#FAAE58"/><stop offset="0.4629" style="stop-color:#F8C16A"/><stop offset="1" style="stop-color:#F6D37A"/></radialGradient><path d="M28.232,44.241c-0.505,0-0.917,0.32-0.917,0.717l-0.002,9.757c0,0.396,0.414,0.719,0.919,0.719     s0.919-0.322,0.919-0.719v-9.757C29.152,44.561,28.741,44.241,28.232,44.241z" fill="url(#SVGID_21_)"/><radialGradient cx="1393.4824" cy="775.79" gradientTransform="matrix(0.8883 0 0 0.8784 -1182.1299 -602.415)" gradientUnits="userSpaceOnUse" id="SVGID_22_" r="76.5964"><stop offset="0" style="stop-color:#FAAE58"/><stop offset="0.4629" style="stop-color:#F8C16A"/><stop offset="1" style="stop-color:#F6D37A"/></radialGradient><path d="M31.63,41.824c-0.507,0-0.918,0.32-0.918,0.715v12.176c0,0.396,0.412,0.719,0.918,0.719     c0.509,0,0.916-0.322,0.916-0.719V42.539C32.546,42.144,32.139,41.824,31.63,41.824z" fill="url(#SVGID_22_)"/><radialGradient cx="1393.4922" cy="775.7725" gradientTransform="matrix(0.8883 0 0 0.8784 -1182.1299 -602.415)" gradientUnits="userSpaceOnUse" id="SVGID_23_" r="76.5841"><stop offset="0" style="stop-color:#FAAE58"/><stop offset="0.4629" style="stop-color:#F8C16A"/><stop offset="1" style="stop-color:#F6D37A"/></radialGradient><path d="M48.604,33.637v-0.854c-0.562,0.33-1.177,0.648-1.832,0.951v0.851     C47.427,34.283,48.042,33.967,48.604,33.637z" fill="url(#SVGID_23_)"/><radialGradient cx="1393.4922" cy="775.791" gradientTransform="matrix(0.8883 0 0 0.8784 -1182.1299 -602.415)" gradientUnits="userSpaceOnUse" id="SVGID_24_" r="76.611"><stop offset="0" style="stop-color:#FAAE58"/><stop offset="0.4629" style="stop-color:#F8C16A"/><stop offset="1" style="stop-color:#F6D37A"/></radialGradient><path d="M46.772,54.715c0,0.396,0.412,0.719,0.916,0.719s0.916-0.322,0.916-0.719V35.131     c-0.562,0.328-1.177,0.645-1.832,0.943V54.715z" fill="url(#SVGID_24_)"/><radialGradient cx="1393.4883" cy="775.791" gradientTransform="matrix(0.8883 0 0 0.8784 -1182.1299 -602.415)" gradientUnits="userSpaceOnUse" id="SVGID_25_" r="76.6066"><stop offset="0" style="stop-color:#FAAE58"/><stop offset="0.4629" style="stop-color:#F8C16A"/><stop offset="1" style="stop-color:#F6D37A"/></radialGradient><path d="M41.829,54.715c0,0.396,0.415,0.719,0.918,0.719c0.506,0,0.917-0.322,0.917-0.719V37.273     c-0.599,0.194-1.215,0.377-1.831,0.54L41.829,54.715z" fill="url(#SVGID_25_)"/><radialGradient cx="1393.4912" cy="775.8115" gradientTransform="matrix(0.8883 0 0 0.8784 -1182.1299 -602.415)" gradientUnits="userSpaceOnUse" id="SVGID_26_" r="76.6384"><stop offset="0" style="stop-color:#FAAE58"/><stop offset="0.4629" style="stop-color:#F8C16A"/><stop offset="1" style="stop-color:#F6D37A"/></radialGradient><path d="M43.664,34.945c-0.599,0.198-1.215,0.381-1.831,0.547v0.842c0.616-0.165,1.232-0.348,1.831-0.544     V34.945z" fill="url(#SVGID_26_)"/><radialGradient cx="1393.4902" cy="775.8164" gradientTransform="matrix(0.8883 0 0 0.8784 -1182.1299 -602.415)" gradientUnits="userSpaceOnUse" id="SVGID_27_" r="76.6448"><stop offset="0" style="stop-color:#FAAE58"/><stop offset="0.4629" style="stop-color:#F8C16A"/><stop offset="1" style="stop-color:#F6D37A"/></radialGradient><path d="M55.709,29.999V29.13c-0.629,0.214-1.242,0.444-1.834,0.688v0.867     C54.467,30.441,55.08,30.213,55.709,29.999z" fill="url(#SVGID_27_)"/><radialGradient cx="1393.4902" cy="775.792" gradientTransform="matrix(0.8883 0 0 0.8784 -1182.1299 -602.415)" gradientUnits="userSpaceOnUse" id="SVGID_28_" r="76.613"><stop offset="0" style="stop-color:#FAAE58"/><stop offset="0.4629" style="stop-color:#F8C16A"/><stop offset="1" style="stop-color:#F6D37A"/></radialGradient><path d="M53.875,54.715c0,0.396,0.412,0.719,0.914,0.719c0.512,0,0.92-0.322,0.92-0.719V31.511     c-0.631,0.211-1.242,0.439-1.834,0.681V54.715z" fill="url(#SVGID_28_)"/><radialGradient cx="1393.4951" cy="775.8311" gradientTransform="matrix(0.8883 0 0 0.8784 -1182.1299 -602.415)" gradientUnits="userSpaceOnUse" id="SVGID_29_" r="76.6636"><stop offset="0" style="stop-color:#FAAE58"/><stop offset="0.4629" style="stop-color:#F8C16A"/><stop offset="1" style="stop-color:#F6D37A"/></radialGradient><path d="M60.342,28.777v-0.878c-0.607,0.116-1.223,0.253-1.834,0.405v0.877     C59.119,29.028,59.734,28.894,60.342,28.777z" fill="url(#SVGID_29_)"/><radialGradient cx="1393.4951" cy="775.791" gradientTransform="matrix(0.8883 0 0 0.8784 -1182.1299 -602.415)" gradientUnits="userSpaceOnUse" id="SVGID_30_" r="76.6075"><stop offset="0" style="stop-color:#FAAE58"/><stop offset="0.4629" style="stop-color:#F8C16A"/><stop offset="1" style="stop-color:#F6D37A"/></radialGradient><path d="M58.508,54.715c0,0.396,0.41,0.719,0.92,0.719c0.504,0,0.914-0.322,0.914-0.719V30.298     c-0.607,0.114-1.223,0.248-1.834,0.398V54.715z" fill="url(#SVGID_30_)"/><radialGradient cx="1393.498" cy="775.791" gradientTransform="matrix(0.8883 0 0 0.8784 -1182.1299 -602.415)" gradientUnits="userSpaceOnUse" id="SVGID_31_" r="76.6019"><stop offset="0" style="stop-color:#FAAE58"/><stop offset="0.4629" style="stop-color:#F8C16A"/><stop offset="1" style="stop-color:#F6D37A"/></radialGradient><path d="M63.449,29.885v24.83c0,0.396,0.408,0.719,0.912,0.719c0.51,0,0.92-0.322,0.92-0.719v-24.88     h-0.443C64.389,29.834,63.926,29.852,63.449,29.885z" fill="url(#SVGID_31_)"/><radialGradient cx="1393.498" cy="775.7939" gradientTransform="matrix(0.8883 0 0 0.8784 -1182.1299 -602.415)" gradientUnits="userSpaceOnUse" id="SVGID_32_" r="76.6133"><stop offset="0" style="stop-color:#FAAE58"/><stop offset="0.4629" style="stop-color:#F8C16A"/><stop offset="1" style="stop-color:#F6D37A"/></radialGradient><path d="M64.898,28.304h0.383v-0.891h-0.328c-0.484,0-0.988,0.021-1.504,0.061v0.885     C63.947,28.322,64.432,28.304,64.898,28.304z" fill="url(#SVGID_32_)"/><radialGradient cx="1393.4727" cy="775.8252" gradientTransform="matrix(0.8883 0 0 0.8784 -1182.1299 -602.415)" gradientUnits="userSpaceOnUse" id="SVGID_33_" r="76.6592"><stop offset="0" style="stop-color:#FAAE58"/><stop offset="0.4629" style="stop-color:#F8C16A"/><stop offset="1" style="stop-color:#F6D37A"/></radialGradient><rect fill="url(#SVGID_33_)" height="0.891" width="1.836" x="68.08" y="27.413"/><radialGradient cx="1393.4727" cy="775.791" gradientTransform="matrix(0.8883 0 0 0.8784 -1182.1299 -602.415)" gradientUnits="userSpaceOnUse" id="SVGID_34_" r="76.6335"><stop offset="0" style="stop-color:#FAAE58"/><stop offset="0.4629" style="stop-color:#F8C16A"/><stop offset="1" style="stop-color:#F6D37A"/></radialGradient><path d="M68.08,54.715c0,0.396,0.414,0.719,0.918,0.719c0.508,0,0.918-0.322,0.918-0.719v-24.88H68.08     V54.715z" fill="url(#SVGID_34_)"/><path d="M9.37,45.507l0.141,1.407c-0.397-3.969,2.392-7.349,6.396-8.001v-1.485     C11.825,38.035,8.968,41.468,9.37,45.507z" fill="#FFE7D4"/><path d="M80.898,29.834c4.848,0,8.436,3.862,7.977,8.478l0.145-1.469c0.465-4.651-3.133-8.54-8-8.54h-2.445v1.531     H80.898z" fill="#FFE7D4"/><path d="M35.066,38.797c2.044,0,4.434-0.368,6.766-0.983v-1.479c-2.345,0.624-4.755,0.997-6.815,0.997H17.211     c-0.444,0-0.88,0.033-1.304,0.096v1.485c0.457-0.075,0.931-0.116,1.417-0.116H35.066z" fill="#FFE7D4"/><path d="M55.709,29.999v1.512c0.91-0.308,1.852-0.581,2.799-0.814v-1.516     C57.561,29.415,56.619,29.691,55.709,29.999z" fill="#FFE7D4"/><path d="M60.342,28.777v1.521c1.066-0.2,2.111-0.342,3.107-0.413v-1.526     C62.453,28.432,61.408,28.575,60.342,28.777z" fill="#FFE7D4"/><path d="M69.916,29.834h7.027c0.043-0.529,0.086-1.039,0.133-1.531h-7.16V29.834z" fill="#FFE7D4"/><path d="M49.791,32.865c-0.358,0.263-0.757,0.521-1.187,0.772v1.494c0.427-0.25,0.824-0.505,1.184-0.766     c1.079-0.784,2.499-1.526,4.087-2.173v-1.507C52.289,31.333,50.871,32.079,49.791,32.865z" fill="#FFE7D4"/><rect fill="#FFE7D4" height="1.531" width="2.799" x="65.281" y="28.304"/><path d="M43.664,35.791v1.483c1.092-0.354,2.141-0.759,3.108-1.2v-1.49     C45.805,35.027,44.755,35.434,43.664,35.791z" fill="#FFE7D4"/><path d="M76.943,29.834h1.631v-1.531h-1.498C77.029,28.795,76.986,29.306,76.943,29.834z" fill="#FFE5B9"/><path d="M46.772,34.584v1.49c0.655-0.298,1.271-0.615,1.832-0.943v-1.494     C48.042,33.967,47.427,34.283,46.772,34.584z" fill="#FFE5B9"/><path d="M43.664,37.273v-1.483c-0.599,0.196-1.215,0.379-1.831,0.544v1.479     C42.449,37.65,43.064,37.468,43.664,37.273z" fill="#FFE5B9"/><path d="M53.875,30.685v1.507c0.592-0.242,1.203-0.47,1.834-0.681v-1.512     C55.08,30.213,54.467,30.441,53.875,30.685z" fill="#FFE5B9"/><path d="M58.508,29.181v1.516c0.611-0.15,1.227-0.284,1.834-0.398v-1.521     C59.734,28.894,59.119,29.028,58.508,29.181z" fill="#FFE5B9"/><path d="M64.898,28.304c-0.467,0-0.951,0.019-1.449,0.055v1.526c0.477-0.034,0.939-0.051,1.389-0.051h0.443     v-1.531H64.898z" fill="#FFE5B9"/><rect fill="#FFE5B9" height="1.531" width="1.836" x="68.08" y="28.304"/></g><linearGradient gradientTransform="matrix(0.2691 0 0 0.3049 462.1292 -200.5454)" gradientUnits="userSpaceOnUse" id="SVGID_35_" x1="-1534.6079" x2="-1534.6079" y1="909.4346" y2="935.6782"><stop offset="0.0113" style="stop-color:#DAD4D8"/><stop offset="0.1442" style="stop-color:#DDD7DB"/><stop offset="0.2591" style="stop-color:#E6E2E5"/><stop offset="0.3669" style="stop-color:#F5F4F5"/><stop offset="0.4181" style="stop-color:#FFFFFF"/><stop offset="0.4358" style="stop-color:#FAF9FA"/><stop offset="0.5088" style="stop-color:#EAE8EA"/><stop offset="0.5868" style="stop-color:#E1DDE0"/><stop offset="0.678" style="stop-color:#DEDADD"/><stop offset="0.8644" style="stop-color:#F7F6F8"/><stop offset="1" style="stop-color:#CCD4E1"/></linearGradient><rect fill="url(#SVGID_35_)" height="6.316" width="75.552" x="11.39" y="77.252"/><linearGradient gradientTransform="matrix(0.3049 0 0 0.3049 537.7466 -200.5454)" gradientUnits="userSpaceOnUse" id="SVGID_36_" x1="-1614.2524" x2="-1596.0947" y1="894.5352" y2="894.5352"><stop offset="0.0113" style="stop-color:#DAD4D8"/><stop offset="0.1442" style="stop-color:#DDD7DB"/><stop offset="0.2591" style="stop-color:#E6E2E5"/><stop offset="0.3669" style="stop-color:#F5F4F5"/><stop offset="0.4181" style="stop-color:#FFFFFF"/><stop offset="0.4358" style="stop-color:#FAF9FA"/><stop offset="0.5088" style="stop-color:#EAE8EA"/><stop offset="0.5868" style="stop-color:#E1DDE0"/><stop offset="0.678" style="stop-color:#DEDADD"/><stop offset="0.8644" style="stop-color:#F7F6F8"/><stop offset="1" style="stop-color:#CCD4E1"/></linearGradient><rect fill="url(#SVGID_36_)" height="10.107" width="5.107" x="45.334" y="67.145"/><g><radialGradient cx="761.2061" cy="226.4707" gradientTransform="matrix(0.2208 0 0 0.2183 -118.2806 35.3502)" gradientUnits="userSpaceOnUse" id="SVGID_37_" r="45.3264"><stop offset="0.0056" style="stop-color:#A9D1EF"/><stop offset="0.5393" style="stop-color:#1998D5"/><stop offset="1" style="stop-color:#0073BB"/></radialGradient><path d="M52.771,80.621c0,2.668-2.187,4.832-4.881,4.832c-2.699,0-4.891-2.164-4.891-4.832     s2.192-4.83,4.891-4.83C50.584,75.791,52.771,77.953,52.771,80.621z" fill="url(#SVGID_37_)"/><linearGradient gradientTransform="matrix(0.2186 0 0 0.2186 -117.0586 35.3838)" gradientUnits="userSpaceOnUse" id="SVGID_38_" x1="753.877" x2="753.6909" y1="200.8174" y2="186.1055"><stop offset="0" style="stop-color:#1998D5"/><stop offset="0.096" style="stop-color:#209BD6"/><stop offset="0.2318" style="stop-color:#32A3DA"/><stop offset="0.3913" style="stop-color:#51B1DF"/><stop offset="0.5689" style="stop-color:#7BC4E7"/><stop offset="0.7614" style="stop-color:#B1DCF1"/><stop offset="0.9635" style="stop-color:#F2F9FD"/><stop offset="1" style="stop-color:#FFFFFF"/></linearGradient><path d="M50.712,78.195c0,1.176-1.625,0.959-3.276,0.959c-1.649,0-2.698,0.217-2.698-0.959     c0-1.172,1.338-2.123,2.987-2.123C49.377,76.072,50.712,77.023,50.712,78.195z" fill="url(#SVGID_38_)"/></g></g></g></svg>