<?xml version="1.0" ?><!DOCTYPE svg  PUBLIC '-//W3C//DTD SVG 1.1//EN'  'http://www.w3.org/Graphics/SVG/1.1/DTD/svg11.dtd'><svg enable-background="new 0 0 128 128" id="Слой_1" version="1.1" viewBox="0 0 128 128" xml:space="preserve" xmlns="http://www.w3.org/2000/svg" xmlns:xlink="http://www.w3.org/1999/xlink"><g><g><g><g><path d="M104,25.5H24c-3.309,0-6,2.691-6,6v65c0,3.309,2.691,6,6,6h80c3.309,0,6-2.691,6-6v-65      C110,28.191,107.309,25.5,104,25.5z M24,27.5h80c2.206,0,4,1.794,4,4v5.655H20V31.5C20,29.294,21.794,27.5,24,27.5z M104,100.5      H24c-2.206,0-4-1.794-4-4V39.155h88V96.5C108,98.706,106.206,100.5,104,100.5z" fill="#ffffff"/><path d="M65,53.496V50c0-0.552-0.447-1-1-1s-1,0.448-1,1v3.496c-2.88,0.479-5.085,2.981-5.085,5.996      c0,3.014,2.205,5.516,5.085,5.995V90c0,0.552,0.447,1,1,1s1-0.448,1-1V65.487c2.88-0.479,5.085-2.981,5.085-5.995      C70.085,56.478,67.88,53.975,65,53.496z M64,63.576c-2.253,0-4.085-1.833-4.085-4.084c0-2.252,1.832-4.085,4.085-4.085      s4.085,1.833,4.085,4.085C68.085,61.744,66.253,63.576,64,63.576z" fill="#ffffff"/><path d="M79.915,75.191V50c0-0.552-0.447-1-1-1s-1,0.448-1,1v25.191c-2.88,0.479-5.085,2.981-5.085,5.996      c0,3.014,2.205,5.516,5.085,5.995V90c0,0.552,0.447,1,1,1s1-0.448,1-1v-2.818C82.795,86.702,85,84.2,85,81.187      C85,78.172,82.795,75.67,79.915,75.191z M78.915,85.271c-2.253,0-4.085-1.833-4.085-4.084c0-2.252,1.832-4.085,4.085-4.085      S83,78.934,83,81.187C83,83.438,81.168,85.271,78.915,85.271z" fill="#ffffff"/><path d="M50.085,75.191V50c0-0.552-0.447-1-1-1s-1,0.448-1,1v25.191C45.205,75.67,43,78.172,43,81.187      c0,3.014,2.205,5.516,5.085,5.995V90c0,0.552,0.447,1,1,1s1-0.448,1-1v-2.818c2.88-0.479,5.085-2.981,5.085-5.995      C55.17,78.172,52.965,75.67,50.085,75.191z M49.085,85.271c-2.253,0-4.085-1.833-4.085-4.084c0-2.252,1.832-4.085,4.085-4.085      s4.085,1.833,4.085,4.085C53.17,83.438,51.338,85.271,49.085,85.271z" fill="#ffffff"/></g><circle cx="24.553" cy="32.5" fill="none" r="0.5" stroke="#ffffff" stroke-linecap="round" stroke-linejoin="round" stroke-miterlimit="10" stroke-width="2"/><circle cx="29.953" cy="32.5" fill="none" r="0.5" stroke="#ffffff" stroke-linecap="round" stroke-linejoin="round" stroke-miterlimit="10" stroke-width="2"/><circle cx="35.353" cy="32.5" fill="none" r="0.5" stroke="#ffffff" stroke-linecap="round" stroke-linejoin="round" stroke-miterlimit="10" stroke-width="2"/></g></g></g></svg>