<?xml version="1.0" encoding="UTF-8"?>
<!-- Svg Vector Icons : http://www.onlinewebfonts.com/icon -->
<!DOCTYPE svg PUBLIC "-//W3C//DTD SVG 1.1//EN" "http://www.w3.org/Graphics/SVG/1.1/DTD/svg11.dtd">
<svg version="1.1" xmlns="http://www.w3.org/2000/svg" xmlns:xlink="http://www.w3.org/1999/xlink" x="0px" y="0px" viewBox="0 0 1000 1000" enable-background="new 0 0 1000 1000" height="16px" width="16px" xml:space="preserve">
<metadata> Svg Vector Icons : http://www.onlinewebfonts.com/icon </metadata>
<g><path d="M846.5,153.5C754,61,630.9,10,500,10c-130.9,0-253.9,51-346.5,143.5C60.9,246.1,10,369.1,10,500c0,130.9,51,253.9,143.5,346.5C246,939.1,369.1,990,500,990c130.9,0,253.9-51,346.5-143.5C939.1,753.9,990,630.9,990,500C990,369.1,939,246.1,846.5,153.5z M500,938.4C258.2,938.4,61.6,741.8,61.6,500C61.6,258.3,258.2,61.6,500,61.6c241.8,0,438.4,196.7,438.4,438.4C938.4,741.8,741.8,938.4,500,938.4z" fill="#117ABC" /><path d="M809.5,525.8H190.5c-14.2,0-25.8-11.6-25.8-25.8c0-14.2,11.6-25.8,25.8-25.8h618.9c14.2,0,25.8,11.6,25.8,25.8C835.3,514.2,823.7,525.8,809.5,525.8z" fill="#117ABC" /></g>
</svg>