<?xml version="1.0" encoding="UTF-8"?>
<!-- Svg Vector Icons : http://www.onlinewebfonts.com/icon -->
<!DOCTYPE svg PUBLIC "-//W3C//DTD SVG 1.1//EN" "http://www.w3.org/Graphics/SVG/1.1/DTD/svg11.dtd">
<svg version="1.1" xmlns="http://www.w3.org/2000/svg" xmlns:xlink="http://www.w3.org/1999/xlink" x="0px" y="0px" viewBox="0 0 1000 1000" enable-background="new 0 0 1000 1000" xml:space="preserve">
<metadata> Svg Vector Icons : http://www.onlinewebfonts.com/icon </metadata>
<g><path d="M968.6,64.4C754.3,7.5,502.5,6.9,500,6.9c-2.5,0-254.3,0.6-468.6,57.5L10,70.1l0.1,434.1c0.7,9.2,8.6,92.9,68.9,192c36.8,60.4,85.7,114.4,145.3,160.6c73.4,56.8,163.3,101.9,267.2,133.8l8.4,2.6l8.4-2.6c103.6-31.9,193.3-76.7,266.6-133.3c59.5-46,108.5-99.9,145.4-160.1c60.9-99.5,68.8-183.7,69.6-193L990,70.1L968.6,64.4z M67.6,114.7c201.5-49.4,430-50.1,432.4-50.1c2.4,0,230.9,0.8,432.4,50.1l0,91.2H67.6V114.7z M871.2,667.1c-33.3,54.2-77.5,102.9-131.5,144.6C674,862.4,593.4,903.2,500,932.8c-93.6-29.7-174.4-70.6-240.4-121.6c-54-41.8-98.3-90.6-131.4-145C73.9,577.1,67.8,503,67.6,495.8V263.5h864.8l0,236.3C932.2,502.9,926,577.6,871.2,667.1z" style="fill: green"/><path d="M472,573.7L307.3,409.1l-76.5,75.3l239.4,239.4l318.3-318.3l-74.2-74.2L472,573.7z" style="fill: green"/></g>
</svg>