<?xml version="1.0" encoding="UTF-8"?>
<!-- Generator: Adobe Illustrator 19.1.0, SVG Export Plug-In . SVG Version: 6.00 Build 0)  -->
<svg version="1.1" xmlns="http://www.w3.org/2000/svg" xmlns:xlink="http://www.w3.org/1999/xlink" x="0px" y="0px" viewBox="0 0 60 60" style="enable-background:new 0 0 60 60;" xml:space="preserve">
<style type="text/css">
	.st0{fill:none;stroke:#00BCD4;stroke-miterlimit:10;}
	.st1{fill:#00BCD4;}
	.st2{fill:none;stroke:#500707;stroke-miterlimit:10;}
	.st3{fill:#2196F3;}
	.st4{display:none;}
	.st5{display:inline;opacity:0.15;fill:none;stroke:#000000;stroke-width:0.25;stroke-miterlimit:10;}
	.st6{display:inline;opacity:0.15;}
	.st7{display:inline;}
	.st8{opacity:0.15;fill:none;stroke:#000000;stroke-width:0.25;stroke-miterlimit:10;}
	.st9{opacity:0.15;}
	.st10{display:inline;fill:none;stroke:#00BCD4;stroke-miterlimit:10;}
</style>
<g id="Layer_2">
	<line class="st2" x1="14.51" y1="43.75" x2="30.77" y2="43.75"/>
	<line class="st2" x1="14.51" y1="49.77" x2="39.88" y2="49.77"/>
	<polyline class="st2" points="49.54,39.43 49.54,6.04 10.46,6.04 10.46,54.89 49.54,54.87  "/>
	<circle class="st2" cx="28.14" cy="27.09" r="11.74"/>
	<line class="st2" x1="10.21" y1="10.21" x2="49.85" y2="10.11"/>
	<line class="st2" x1="36.28" y1="35.58" x2="49.85" y2="49.15"/>
</g>
<g id="guide-overlay" class="st4">
	<g class="st7">
		<line class="st8" x1="0" y1="0.19" x2="60" y2="60.19"/>
		<line class="st8" x1="60" y1="0.19" x2="0" y2="60.19"/>
		<g class="st9">
			<path d="M30,5.44c13.65,0,24.75,11.1,24.75,24.75S43.65,54.94,30,54.94S5.25,43.84,5.25,30.19S16.35,5.44,30,5.44 M30,5.19     c-13.81,0-25,11.19-25,25s11.19,25,25,25s25-11.19,25-25S43.81,5.19,30,5.19L30,5.19z"/>
		</g>
		<g class="st9">
			<path d="M52.25,7.94v44.5H7.75V7.94H52.25 M52.5,7.69h-45v45h45V7.69L52.5,7.69z"/>
		</g>
		<rect x="10" y="5.19" class="st8" width="40" height="50"/>
		<rect x="5" y="10.19" class="st8" width="50" height="40"/>
		<g class="st9">
			<path d="M44.77,35.71c5.27,0,9.56,4.29,9.56,9.56s-4.29,9.56-9.56,9.56s-9.56-4.29-9.56-9.56S39.5,35.71,44.77,35.71      M44.77,35.46c-5.42,0-9.81,4.39-9.81,9.81s4.39,9.81,9.81,9.81s9.81-4.39,9.81-9.81S50.19,35.46,44.77,35.46L44.77,35.46z"/>
		</g>
	</g>
</g>
</svg>