<?xml version="1.0" ?><svg enable-background="new 0 0 32 32" version="1.1" viewBox="0 0 32 32" fill="#fff" xml:space="preserve" xmlns="http://www.w3.org/2000/svg" xmlns:xlink="http://www.w3.org/1999/xlink"><g id="Outline_copy_2"><g><rect height="15.461" width="2.178" x="21.555" y="0.17"/><rect height="12.079" width="2.178" x="18.234" y="3.552"/><rect height="8.697" width="2.178" x="14.913" y="6.934"/><rect height="5.798" width="2.178" x="11.592" y="9.833"/><rect height="3.191" width="2.178" x="8.271" y="12.44"/><path d="M18.242,31.803c0.063,0.016,0.128,0.028,0.193,0.028c1.202,0,2.404,0,3.606,0c0.095,0,0.369-0.006,0.387-0.148    c0.543-4.353,6.129-5.577,8.248-9.012c1.272-2.062,1.58-4.771,1.126-7.132c-0.053-0.276-0.621-0.31-0.831-0.241    c-1.963,0.644-1.673,2.172-2.052,3.964c-0.327,1.549-1.158,2.766-2.352,3.568c1.243-1.28,2.609-3.119,1.412-3.96    c-0.764-0.537-1.82-0.148-2.429,0.297c-0.926,0.679-1.706,1.686-2.607,2.424c-1.616,1.323-3.762,2.387-4.882,4.219    c-1.05,1.717-1.106,4.005-0.22,5.811C17.89,31.718,18.058,31.779,18.242,31.803z M18.327,27.79c0.611-3.031,3.64-4.38,5.82-6.193    c0.451-0.376,1.982-2.374,2.57-2.482c1.851-0.338-1.624,4.071-2.374,4.676c-0.246,0.198,0.714,0.313,0.807,0.292    c1.251-0.28,2.521-0.922,3.405-1.856c1.413-1.494,0.988-4.802,2.352-6.122c0.127,1.053,0.103,2.143-0.059,3.178    c-0.54,3.437-2.855,5.229-5.489,7.203c-1.502,1.126-3.236,2.293-3.772,4.197c-0.143,0.507,0.221,0.502-0.079,0.732    c-0.122,0.094-1.118,0-1.243,0c-0.512,0-1.023,0-1.535,0C18.236,30.295,18.087,28.979,18.327,27.79z"/><path d="M9.563,22.026c-1.105-0.872-2.038-2.06-3.154-2.877c-0.58-0.425-1.709-0.799-2.421-0.295    c-1.239,0.877,0.321,2.835,1.626,4.124c-1.378-0.86-2.253-2.264-2.594-4.008c-0.333-1.7-0.12-3.034-1.971-3.641    c-0.191-0.062-0.795-0.129-0.85,0.16c-0.454,2.361-0.146,5.068,1.121,7.134c2.111,3.44,7.712,4.673,8.253,9.01    c0.023,0.184,0.385,0.189,0.504,0.189c1.202,0,2.404,0,3.606,0c0.006,0,0.007-0.002,0.013-0.002c0.208,0,0.412-0.046,0.466-0.155    c0.843-1.718,0.843-3.868-0.068-5.55C13.099,24.28,11.146,23.275,9.563,22.026z M13.255,31.423c-0.907,0-1.813,0-2.72,0    c-0.616-3.791-5.108-5.242-7.432-7.842c-1.78-1.992-2.346-4.88-1.991-7.511c0.862,0.764,0.727,2.083,0.975,3.26    c0.251,1.187,0.649,2.199,1.544,3.049c0.892,0.847,2.108,1.432,3.307,1.701c0.119,0.027,1.002-0.027,0.678-0.288    c-0.768-0.619-1.455-1.372-2.033-2.171c-0.533-0.736-0.711-1.027-0.571-1.901c0.062-0.39,0.326-0.56,0.329-0.621    c0.488,0.159,1.963,1.996,2.326,2.304c2.19,1.859,5.386,3.275,6.004,6.339C13.916,28.946,13.765,30.295,13.255,31.423z"/></g></g></svg>